<svg id="Layer_1" enable-background="new 0 0 512 512" height="512" viewBox="0 0 512 512" width="512" xmlns="http://www.w3.org/2000/svg"><g><path d="m75.171 432.297h361.657c39.854-43.574 64.173-101.595 64.173-165.299 0-135.311-109.691-245.002-245.002-245.002s-245.001 109.691-245.001 245.002c0 63.705 24.319 121.725 64.173 165.299z" fill="#4fabf7"/><path d="m256 512c71.606 0 136.032-30.724 180.829-79.703v-305.396c-8.139-35.438-46.75-37.608-47.245-37.629h-34.397c-4.214 0-7.631-3.417-7.631-7.631v-36.853c-.135-6.802-2.518-37.479-33.828-44.742-.111-.013-.293-.033-.404-.046h-223.965c-7.836 0-14.188 6.352-14.188 14.188v418.11c44.797 48.978 109.223 79.702 180.829 79.702z" fill="#d3dcfb"/><g fill="#bec8f7"><path d="m188.751 150.831c.043.017.079.032.122.049-.076-.031-.122-.049-.122-.049z"/><path d="m148.958 290.099c-.046-.046-.112-.112-.192-.192z"/><path d="m148.685 289.826c-.128-.128-.29-.289-.497-.497.192.192.361.361.497.497z"/><path d="m147.187 288.328c-.159-.159-.336-.336-.518-.518.175.176.35.35.518.518z"/><path d="m145.9 287.042c-.192-.192-.394-.394-.607-.607.196.195.401.4.607.607z"/><path d="m145.9 287.042c.277.277.533.533.768.769-.254-.256-.512-.514-.768-.769z"/><path d="m148.958 290.099c.103.103.112.112 0 0z"/><path d="m197.536 0h-108.177c-7.836 0-14.188 6.352-14.188 14.188v418.11c32.746 35.802 75.986 61.831 124.846 73.255-7.901-8.927-9.934-21.939-9.934-21.939s0-47.333 0-67.667c0-20.333 10.521-26.665 10.521-26.665l-57.046-104.584c-12.345-12.345 0-26.312 0-26.312 0-63.894 45.194-107.556 45.194-107.556-11.998-4.783-12.668-23.884-12.668-23.884s0-76 0-98.667c-.001-13.738 11.997-23.061 21.452-28.279z"/></g><path d="m413.684 67.628-44.483-44.483c-14.819-14.82-34.919-23.145-55.876-23.145h-14.075c43.793 0 46.662 37.532 46.806 44.818v36.824c0 5.043 4.088 9.131 9.131 9.131h34.397s47.245 2.1 47.245 50.1v-17.368c0-20.959-8.326-41.058-23.145-55.877z" fill="#f7f7f7"/><path d="m367.951 276.422c-7.426-.806-14.076 4.544-14.885 11.956-2.435 22.305-12.103 42.477-27.959 58.333-38.061 38.062-99.994 38.062-138.056 0-5.266-5.267-9.883-11.095-13.785-17.355-1.387-2.226.871-4.926 3.296-3.928l16.947 6.98c6.721 2.769 14.633-.015 17.714-6.599 3.29-7.029.015-15.299-7.078-18.221l-53.461-22.02c-6.887-2.837-14.785.445-17.624 7.341l-22.02 53.461c-2.84 6.894.447 14.785 7.341 17.624 6.952 2.863 14.808-.505 17.624-7.341l6.993-16.977c.847-2.057 3.705-2.264 4.805-.33 5.48 9.633 12.243 18.543 20.157 26.456 48.582 48.583 127.643 48.595 176.239 0 19.962-19.962 32.644-46.418 35.707-74.496.81-7.411-4.544-14.075-11.955-14.884z" fill="#9181f2"/><path d="m391.036 170.499c-6.844-2.449-14.391 1.208-17.159 7.928l-6.847 16.624c-.847 2.057-3.705 2.264-4.805.33-5.48-9.632-12.244-18.543-20.157-26.457-48.588-48.589-127.649-48.589-176.239 0-19.962 19.962-32.643 46.419-35.707 74.496-.868 7.949 5.343 14.965 13.437 14.965 6.799 0 12.649-5.122 13.403-12.037 2.434-22.305 12.103-42.477 27.959-58.333 38.061-38.061 99.993-38.062 138.056 0 5.266 5.267 9.883 11.096 13.785 17.355 1.387 2.226-.871 4.926-3.296 3.928l-17.299-7.126c-7.094-2.921-15.244.643-17.858 7.95-2.449 6.845 1.208 14.392 7.93 17.161l53.106 21.875c6.952 2.863 14.808-.505 17.624-7.341l22.021-53.461c2.92-7.092-.646-15.242-7.954-17.857z" fill="#afa7f9"/><path d="m487.882 187.716c-11.126 13.913-17.813 31.51-17.813 50.603v65.205c0 17.973 5.92 34.625 15.894 48.123 9.719-26.382 15.04-54.892 15.04-84.649-.001-27.747-4.621-54.414-13.121-79.282z" fill="#73c3f9"/><path d="m26.037 351.647c9.974-13.498 15.894-30.15 15.894-48.123v-65.205c0-19.093-6.687-36.69-17.813-50.603-8.501 24.868-13.121 51.535-13.121 79.282.001 29.757 5.321 58.267 15.04 84.649z" fill="#73c3f9"/><path d="m400.028 53.972-30.827-30.827c-14.819-14.82-34.919-23.145-55.876-23.145h-14.075c43.793 0 46.662 37.532 46.806 44.818v36.824c0 5.043 4.088 9.131 9.131 9.131h20.352c-5.46-32.895 24.489-36.801 24.489-36.801z" fill="#e9efff"/><path d="m130.121 243.421c-.868 7.949 5.343 14.965 13.437 14.965 6.799 0 12.649-5.122 13.403-12.037 2.435-22.305 12.103-42.477 27.959-58.333 5.567-5.567 11.656-10.296 18.096-14.235-.013-.002-.025-.006-.037-.008-22.438-3.34-14.105-22.894-14.105-22.894l-.172-.017c-8.14 5.002-15.829 11.018-22.874 18.063-19.962 19.962-32.643 46.419-35.707 74.496z" fill="#9181f2"/><path d="m187.052 346.711c-5.266-5.267-9.883-11.095-13.785-17.355-1.387-2.226.871-4.926 3.295-3.928l16.947 6.98c6.721 2.769 14.633-.015 17.714-6.599 3.29-7.029.015-15.299-7.078-18.221l-53.461-22.02c-6.887-2.837-14.785.445-17.624 7.341l-22.021 53.461c-2.84 6.894.447 14.785 7.341 17.624 6.952 2.863 14.808-.505 17.624-7.341l6.993-16.977c.847-2.057 3.705-2.264 4.806-.33 5.479 9.633 12.243 18.543 20.157 26.456 9.806 9.806 20.855 17.631 32.644 23.479-3.313-19.332 14.712-22.893 14.712-22.893l.004-.008c-10.247-4.693-19.844-11.245-28.268-19.669z" fill="#816ae2"/><path d="m367.951 276.422c-7.426-.806-14.076 4.544-14.885 11.956-2.435 22.305-12.103 42.477-27.959 58.333 0 0-3.709 21.947 19.092 19.092 19.962-19.962 32.644-46.418 35.707-74.496.81-7.412-4.544-14.076-11.955-14.885z" fill="#afa7f9"/></g></svg>